<?xml version="1.0" encoding="utf-8"?>
<!-- Generator: Adobe Illustrator 25.2.3, SVG Export Plug-In . SVG Version: 6.00 Build 0)  -->
<svg version="1.1" xmlns="http://www.w3.org/2000/svg" xmlns:xlink="http://www.w3.org/1999/xlink" x="0px" y="0px"
	 viewBox="0 0 1920 1080" style="enable-background:new 0 0 1920 1080;" xml:space="preserve">
<style type="text/css">
	.st0{display:none;}
	.st1{display:inline;fill:none;stroke:#FF1D25;stroke-width:27;stroke-linecap:round;stroke-linejoin:round;stroke-miterlimit:10;}
</style>
<g id="レイヤー_1">
	<g>
		<path d="M808.38,536.77c-0.62-1.69-1.69-4.46-2.62-4.46c-0.77,0-2.46,2.46-3.69,3.54s-1.23,1.69-2.46,2.77
			c-2.46,2.15-3.08,3.23-4.15,4.31c-1.69,1.85-2.46,2.31-4.62,4.62c-2.15,2.31-2.15,2.62-4.31,4.77c-1.54,1.54-3.38,2.77-4.15,4.31
			c-0.77,1.54-4.92,4.46-4.92,5.85c0,0.15,0.46,0.15,1.08,0.15c3.85,0,3.54-0.62,5.08-0.62c0.77,0,2.15-0.62,3.38-0.77
			c1.85-0.46,2.62-1.23,4-2.15c1.69-1.08,2.46-2,4.46-3.69s1.69-2.31,3.08-2.62c0.77,0,0.92,0,0.92,0.31c0,0.46-0.77,0.77-1.23,2
			c-0.31,0.92-3.69,3.69-4.77,4.62c-2.46,2.15-3.54,2.15-6.31,3.69c-2.92,1.08-3.85,0.62-6.15,1.08c-1.54,0.31-2.62,0.31-5.38,0.31
			c-0.92,0-3.23,2.31-4.46,3.69c-2,2.15-3.23,2.62-4.92,4.31c-0.77,0.77-2.15,2.31-4,3.54c-2.46,2.31-3.85,3.08-4.92,4.15
			c-1.69,1.69-6.62,4.15-6.62,4.15l-6.62,3.69c-1.23,0.62-4.77,2.62-9.08,3.54c-2.62,0.46-4.62,1.38-6.62,1.69
			c-4.31,0.77-6.31,1.23-10.15,2c-2.15,0.46-3.69,0.62-6.77,0.92c-1.69,0-4.15,0.15-6.46,0.15c-3.23,0-1.85,0.15-5.69,0.15
			c-2.62,0-6.31-0.77-8-0.77c-1.54,0-4.31-0.92-7.54-2.15c-2.46-0.92-3.38-1.54-5.54-3.08c-2.62-2-4.15-3.69-4.31-7.54
			c-0.15-2.46-0.92-3.54-0.92-5.08c0-3.23,1.69-7.54,2.92-8.77c2.31-2.46,2.77-3.85,4.31-4.77c1.69-1.08,2.15-1.69,5.69-2.15
			c1.08-0.31,2-0.31,2.46-0.31c1.08,0,3.38,0.15,4.92,1.54c2.46,2.15,3.38,5.54,3.38,6.77c0,0.62,0.15,1.23,0.15,2
			s-0.15,2-0.92,3.38c-1.38,2.62-1.85,2.92-3.85,4.62c-1.85,1.54-7.08,2.77-7.08,6.15l0.15,1.54c0.15,1.38,3.08,2.77,4.77,3.38
			c1.85,0.77,4.92,1.38,9.85,1.85c2.15,0.15,3.85,0.31,5.38,0.31c2,0,3.69-0.15,5.38-0.15l6-0.46c3.54-0.31,4.62-0.31,7.39-1.23
			c2.15-0.62,10-2,12.77-3.38c4.77-1.69,3.38-1.54,6.77-3.08c3.08-1.23,5.39-3.69,8.62-4.92c3.23-1.23,3.69-2.92,5.85-4.31
			c1.85-1.23,3.08-2.62,3.85-3.23c1.85-1.54,3.08-2.31,4.15-3.69c0.92-1.38,4.46-3.54,4.46-4.62c0-0.77-4.46-0.77-6-2
			c-1.54-1.23-4.77-2.15-6.31-4.31c-1.23-1.85-2.15-2-3.38-4.15c-1.23-2.15-2.15-3.38-2.31-6.31c-0.15-2.62-0.15-3.85-0.15-6.15
			c0-0.46,0.15-1.38,0.31-2.15c0.46-1.54,1.38-3.54,2.31-5.23c0.77-1.23,1.54-2.31,2.15-2.92c0.77-1.08,1.38-2.62,4-5.08
			c2.92-2.46,4.92-3.23,6.15-4c1.69-1.23,4-1.85,6.46-2.31c1.69-0.31,3.23-0.77,4.77-0.77c3.38-0.15,3.38-0.62,5.23-0.62
			c2.31,0,4.31,0.46,4.31,0.46c0.77,0,1.85,0.31,3.23,0.31c1.08,0,2.46,0.46,3.69,0.92l3.08,1.23c1.38,0.77,2.92,2,4,2.46
			c1.08,0.46,2.92,3.23,3.69,3.23c1.08,0,0.92-0.77,2-1.54c1.38-1.08,3.08-4,5.54-6c2.46-2.31,2.92-4,5.38-6
			c2.77-2.15,3.85-4.62,6.31-6.77c2-1.69,2-2.92,4.62-5.08c1.69-1.54,3.38-4.15,4.77-5.08c2.62-1.69,1.38-2.77,4-4.62
			c2.77-2,3.38-3.23,5.69-4.62c2.15-1.38,1.08-2,3.38-3.54c2.46-1.38,2.15-2.46,4.46-2.46c1.69,0,2,1.08,2,2.77v0.77
			c0,0,0,0.77,0,1.54c0,0.77,0,1.23-0.15,2.15c-0.31,1.69,0,1.38-1.08,3.54c-1.23,2-1.85,2.15-2.77,3.69
			c-0.77,1.69-1.85,2.31-2.31,4c-0.46,1.85-2.15,2.46-3.69,5.23c-1.23,2.92-1.54,3.23-2.15,4.92c-1.08,2-1.38,2.15-2.31,3.23
			c-0.62,1.54-2.46,3.23-3.38,5.23c-1.08,2.31-2,2.77-2.92,5.08c-0.92,1.85-2.46,3.38-3.08,5.54c-0.62,2.15-3.38,4.31-4.46,6.77
			c-1.38,3.38-3.08,4.46-4,7.23c-1.23,2.46-4,5.85-5.08,8.77c-1.23,3.23-4,7.23-5.38,10.31c-1.38,2.31-3.08,5.08-4.31,8.77
			c-1.38,3.23-3.08,5.23-4,8.62c-0.92,3.38-2.15,4.92-3.54,8.77c-0.46,1.38-2.77,4.46-6,5.08c-1.69,0.31-6.31,0.31-7.69,0.31
			c-1.85,0-2.15-2.31-2.15-4c0-0.46,0.31-1.85,1.38-3.08c1.85-3.38,0.92-3.08,3.08-5.69c2.15-2.62,2-2.77,3.69-5.54
			c1.38-1.85,1.54-3.85,4.15-6.92c2.15-2.62,1.85-3.69,3.85-6.31c2.31-2.77,2.31-4.77,3.69-6.31c1.54-1.69,1.54-2.92,2.92-4.92
			c1.38-1.69,1.23-1.54,1.69-2.92c0.15-0.15,0.77-2.15,1.08-3.08c0.46-1.54,0.46-3.23,0.46-3.23
			C809.3,539.85,808.84,538.15,808.38,536.77z M800.68,526c-1.54-1.08-4-2.92-6-3.08c-0.62-0.15-2.62-0.46-2.92-0.46
			c-1.85,0-1.85,0-3.08-0.15c-3.38,0-2,0.62-4.15,0.62c-1.69,0-2.46,0.92-3.85,0.92c-2.31,0-3.38,1.69-5.54,2.77
			c-2.62,0.92-4.77,2.15-5.85,3.54c-1.08,1.69-3.08,3.08-4.62,5.08c-1.38,2.31-1.23,3.23-2,5.23c-0.46,0.46-0.62,1.85-0.62,2.77
			c0,1.23-0.31,1.08-0.31,2.92c0,1.23,0.15,2.46,0.31,3.69c0.15,1.38,0.46,2.46,0.92,3.39c0.77,1.54,1.08,4.31,3.23,5.38
			c1.85,1.08,1.54,2.15,4,2.77c0.46,0.15,1.38,0.77,2.77,0.77c0.62,0,1.54-0.92,1.85-1.38c1.54-2,2.31-2.15,3.54-3.69
			c0.77-0.92,2-1.85,2.77-2.77c0.77-0.77,1.23-1.69,2-2.31c1.54-1.38,1.69-1.85,3.54-3.69c2-2.15,3.23-2.92,4.77-4.77l4-4.62
			c1.85-2.15,2.92-3.38,4-4.46c1.54-1.38,4.15-4.15,4.15-5.08C803.61,528.46,801.3,526.46,800.68,526z M842.07,492.31
			c-1.54,1.54-1.69,1.54-4,3.69c-2.31,2.31-2.31,3.23-4.92,5.54c-2,1.54-2.92,3.69-5.23,5.69c-1.85,1.54-3.08,4.31-4.77,5.69
			c-1.69,1.54-2.15,2.92-3.85,4.15c-2.46,1.69-3.54,4-5.23,5.54c-1.69,1.54-2.62,3.23-4.77,5.23c-0.77,0.77-1.38,1.54-1.38,2.31
			c0,0.46,0.62,1.23,0.77,1.38c1.69,2.31,0.77,1.85,1.85,3.69c1.23,2,1.38,5.69,2,5.69c1.23,0,3.69-4.77,4-5.69
			c1.08-2,1.54-2.62,3.23-4.31c1.54-1.69,1.38-2.15,3.38-4.92c2.15-2.92,1.54-3.69,3.54-5.85c2-2,1.85-3.23,4.15-6.31
			c2.31-2.62,2-3.23,4.15-5.39c1.54-2,2.15-3.54,2.92-5.08c0.46-1.54,2.46-3.69,3.69-5.08c0.77-0.92,1.23-2.31,2.31-3.38
			c1.38-1.54,0.62-0.92,1.54-2.31c0.62-1.08,0.92-1.54,0.92-2.31c0-0.46-0.31-0.77-0.62-0.77
			C844.53,489.54,843.76,490.77,842.07,492.31z"/>
		<path d="M824.84,569.85c0.46,0,0.92-0.15,1.69-0.62c1.23-0.77,1.69-1.23,2.77-2c1.54-1.08,1.69-1.38,2.92-2.15
			c1.23-0.77,3.23-2.15,4.31-3.08c1.38-1.08,2.31-1.54,3.85-2.46s1.69-1.23,3.08-2.15c2.77-1.85,2-1.54,4.31-2.92
			c2.46-1.69,1.38-1.23,3.08-2.46c1.54-1.54,2.31-0.92,4.15-2.15c1.69-1.08,3.54-1.23,6.15-1.23c1.23,0,3.08,1.08,3.08,2.31
			c0,1.38,0,1.69-0.77,2.92c-0.62,1.23-1.08,1.54-3.08,2.31c-1.23,0.46-1.54,1.38-3.08,1.85c-2.31,0.77-3.69,1.85-3.69,5.08
			c0,2.15-0.77,2.92-0.77,4.77c0,1.23,0.15,1.85,0.15,3.23c0,0.92-0.46,2.15-0.46,3.08v0.62c0,1.23-0.15,3.38-1.38,5.38
			c-1.54,2.46-1.08,3.08-3.23,6c-1.54,1.54-2.31,2.92-3.54,4c-1.08,1.23-1.54,1.08-2.46,2c-0.77,0.92-2.46,1.23-3.85,2
			c-2.15,1.23-3.69,0.92-5.85,1.54c-1.08,0.31-2,0.31-3.08,0.31h-2.77c-3.85,0-5.23-1.23-8.46-3.69c-1.38-1.08-2.15-3.08-2.92-5.54
			c-0.77-2.31-0.92-2.92-0.92-4.46c0-0.46,0.31-1.23,0.31-2.31c0-1.85,0.92-4,2-5.23c1.08-1.23,1.08-2.15,2.62-3.08
			C820.69,570.77,821.92,569.85,824.84,569.85z M828.84,570.62c-0.62,0.46-0.92,0.77-0.92,1.23c0,0.77,1.23,0.92,1.69,2
			c0.46,1.08,0.62,1.69,0.62,3.69c0,2.15-2,4.62-4,5.23c-2.46,0.77-3.38,2.46-3.38,3.85c0,1.69,0.46,3.23,1.38,4.31
			c1.08,1.23,2.46,2.46,5.23,2.46c0.77,0,2,0,2.92-0.31c1.23-0.46,2.46-0.62,3.38-1.54c0.77-0.77,1.23-1.08,3.38-2.92
			c2-1.69,1.54-2.92,2.46-4.31c0.92-1.38,0.77-1.69,1.38-3.54c0.46-1.23,1.23-2.92,1.23-4.31c-0.15-1.23-0.15-1.69-0.15-2.15
			c0-0.92,0.31-2.31,0.31-3.54c0-0.46-0.15-0.77-0.15-2c0-1.38,0.62-2.62,0.62-4.62c0-1.38-0.92-1.38-1.38-1.38
			c-1.38,0-3.08,0.62-4.77,1.69c-1.69,1.08-3.08,1.69-4.46,2.46s-1.54,1.08-2.77,1.85C830.22,569.54,828.84,570.62,828.84,570.62z"
			/>
		<path d="M873.76,562.77c1.23-1.08,1.54-2,3.54-4.15c1.85-2,2.77-4,3.69-4.92c2-2,1.85-2.62,3.54-4.31
			c1.08-1.08,1.85-2.77,2.46-3.38c0.15-0.15,0.46-0.62,0.46-0.92c0-0.31-0.62-0.31-1.38-0.31h-5.54c-2.92,0-4-0.15-5.23-0.15h-4.92
			c-1.23,0-1.85-0.77-1.85-1.38c0-1.08,1.38-1.23,2.62-1.23h1.38c6,0,7.23,0.15,8.92,0.15c1.54,0,3.85-0.15,5.54-0.15h2.62
			c1.23-0.15,2.77-2.62,4-3.85c1.69-1.69,1.54-2,3.23-4.15c1.54-2.31,1.85-2.62,3.69-4.62c1.85-2,2.77-4.31,5.23-5.23
			c0.92-0.46,1.54-0.62,2.31-0.62c1.38,0,2,0.46,3.54,0.92c0.92,0.31,1.85,1.08,1.85,2.46c0,2-2.15,3.08-3.54,4.62
			c-1.38,1.69-0.46,0.77-3.08,3.38c-2.46,2.77-1.23,0.92-2.77,2.92c-0.92,1.08-3.08,3.38-3.08,4s1.85,0.62,3.23,0.62
			c1.85,0,6-0.31,8.46-0.31c2.46,0,4.31,0.15,6.92,0.15c0.92,0,1.85-0.15,3.54-0.15c2.46,0,5.23-0.31,7.54-0.31
			c2.92,0,2.46,0.15,7.69,0.15c2.46,0,5.38-0.15,8-0.15c1.85,0,3.54,0.15,4.46,0.15c0.92,0,1.54,0.77,1.54,1.38
			c0,0.46-0.31,0.92-1.08,1.08c-0.62,0.15-1.38,0.15-2,0.15c0,0-3.38-0.15-5.08-0.15c-1.54,0-3.23,0.15-4.92,0.15
			s-4.92-0.15-5.54-0.15c-3.38,0-6.77,0.15-10.46,0.15c-4.77,0-9.54,0.15-15.54,0.15c-2.62,0-3.85,0.15-6.31,0.15h-2.15
			c-1.38,0-1.54,0.77-2.62,1.85c-1.69,1.85-2.92,2.46-4.77,4.92s-1.23,2.31-3.54,4.77c-0.92,0.92-2.77,2.77-3.69,4.15
			c-1.54,2.46-3.85,4.46-4.77,5.85c-2.31,3.23-3.85,4.46-4.92,6c-1.38,2-1.85,2.31-2.77,3.85c-0.77,1.38-0.92,2.46-1.54,3.85
			c-0.31,0.62-0.31,2-0.31,2.77c0,1.54,0.77,3.08,1.85,3.54c1.23,0.46,2,1.54,4,1.54c2,0,1.69-0.15,3.85-0.46
			c2.15-0.31,3.54-1.69,5.08-2.31c2-0.77,3.08-2.15,4.46-2.77c1.69-0.77,2.92-2.46,4.46-3.38c1.54-0.92,1.54-1.23,3.08-2.31
			c1.08-0.77,2-1.69,3.23-2.62c1.54-1.08,1.54-1.23,2.31-1.85c1.08-0.92,2-2,2.92-2c0.46,0,0.46,0.46,0.46,0.77
			c0,0.46-0.77,1.38-2,2.62l-3.23,2.92c-1.08,0.92-1.54,1.08-2.77,2.31c-1.23,1.23-2.31,1.69-3.85,3.23
			c-1.54,1.54-3.85,2.92-6.15,4.77c-2.31,1.85-2.62,1.54-4.62,3.08c-2,1.54-2.62,1.54-5.38,2.46c-1.54,0.62-3.38,0.92-4.62,0.92
			c-1.54,0-2.62-0.15-3.85-0.31c-2.77-0.46-4.46-0.46-6-2.92c-1.23-2-2-2.92-2-4.46c0-2.77,0-3.69,0.46-5.08s0.62-3.08,1.38-4.31
			c0.77-1.23,1.08-3.23,3.08-4.92s2-2.77,3.38-4C871.3,566.15,871.61,564.62,873.76,562.77z"/>
		<path d="M912.84,559.23c1.69-1.54,1.23-1.38,2.92-3.54c2-2.15,1.85-1.85,3.69-3.69c1.85-1.85,2.31-2.15,3.85-3.38
			c1.23-1.08,3.54-2.15,4.77-2.15c2,0,4.15,0.92,4.15,3.38c0,0.77-0.15,1.08-0.31,2.15c-0.15,1.23-0.77,2.15-1.85,3.54
			c-1.38,1.69-1.54,1.23-2.92,2.62c-1.38,1.38-2,1.54-3.69,2.92s-2,1.38-4.46,3.38c-1.54,1.23-2.92,2-4.92,3.85
			c-1.23,1.08-2.77,3.23-4,5.23c-1.08,2-0.62,0.77-1.69,2.62l-1.38,2.31c-0.77,1.23-1.08,2.92-1.08,4.77c0,0.62,0.15,0.92,0.15,1.38
			c0,0.77,0,1.69,0.46,2.15c0.92,0.92,1.23,1.38,3.38,1.38c1.38,0,3.54-0.62,4.62-0.92c2.46-0.62,1.85-0.92,4-1.85
			c2.15-0.92,1.85-1.23,4-2.31c2.15-1.08,2.15-1.69,3.54-2.62c0,0,2.15-1.54,3.69-2.77c1.69-1.38,2.46-2.15,3.54-2.92
			c0,0,1.54-1.23,2-1.69c0.46-0.46,1.69-1.23,1.69-1.23c1.08-0.92,1.54-1.54,2.15-1.54c0.46,0,0.62,0.31,0.62,0.46
			c0,1.08-1.69,2.77-2.77,3.69c-1.08,0.92-2.92,2.31-4.92,4.31c-0.92,0.92-2.15,1.85-4.62,3.85c-1.54,1.23-2.62,2.46-4.62,3.69
			c-2.15,1.23-2.15,1.69-3.85,2.77c-1.23,0.77-2,1.38-3.54,2.15c-2.15,1.08-3.69,1.54-5.54,1.69c-1.85,0.31-2,0.46-3.69,0.46
			c-0.92,0-0.77,0-2.31-0.15c-1.54-0.15-3.08-0.15-4.62-1.23c-1.54-1.08-2.31-2.77-2.31-4.92c0-0.77-0.31-1.54-0.31-2.62
			c0-2.15,0.62-4.31,1.85-6.31s1.38-2.92,3.08-4.92c1.69-2,1.54-2.46,3.38-4.31c1.85-1.85,2.15-2.77,3.85-4.77
			S911.15,560.77,912.84,559.23z M923.77,553.08c-1.38,1.23-0.92,0.62-2.15,2.15c-1.08,1.38-0.62,0.62-1.54,1.69
			c-0.92,1.23-0.46,0.92-1.38,1.85c-0.92,1.08-0.77,0.92-1.23,1.69c0,0.15-0.77,1.23-0.77,1.54c0,0.15,0.31,0.46,0.46,0.46
			c0.46,0,1.08-0.62,2-1.23c1.08-0.77,0.92-0.92,2.46-1.85c1.54-0.92,1.85-1.54,2.77-2.31c0.92-0.77,1.54-1.54,2-2
			s1.08-1.38,1.08-2.15c0-0.77-0.46-1.08-0.92-1.08C925.61,551.85,924.84,552.15,923.77,553.08z"/>
		<path d="M975.31,575.85c-1.23,1.08-2,1.69-3.08,2.92c-1.08,1.08-2,1.54-3.08,2.46c-0.77,0.62-1.85,2-2.62,2.46
			c-1.54,0.92-1.85,1.69-3.54,2.62c-2.15,1.23-2.15,1.69-3.54,2.77c-1.38,1.08-4.46,2.46-6.92,3.38c-1.38,0.62-0.46,0.31-1.85,0.62
			c-0.77,0.15-1.85,0.15-2.31,0.15c-3.54,0-4.31-0.62-6-2.31c-1.23-1.23-1.69-2.31-1.69-5.54c0-0.46,0.15-1.23,0.15-1.69
			c0-1.54,1.85-4.62,3.54-6.31c2.46-2.46,3.23-3.85,5.69-6c3.23-2.77,2.92-2.92,4.92-4.62c2.15-1.85,3.23-3.08,3.23-3.85
			c0-0.46-0.15-0.62-0.31-0.62s-0.31,0-0.62,0.15c-1.54,0.46-2.46,1.54-4.46,1.54c-2.62,0-2.31-0.92-3.23-0.92
			c-0.31,0-0.62,0.46-1.23,0.92c-1.54,1.08-1.85,1.69-3.23,3.08s-2,1.69-3.08,2.77c-1.08,1.08-0.92,0.62-2.15,1.85
			c-1.08,1.08-2.46,2.15-2.92,2.15c-0.77,0-0.77-0.77-0.77-0.77c0-0.62,0.62-1.08,1.54-2c1.85-1.85,2.77-2.92,4.15-4
			c0.92-0.77,1.38-1.69,2.62-2.77c1.69-1.54,1.54-1.69,2.62-2.77c0.62-0.62,0.77-1.23,0.77-1.69s-0.46-1.23-0.46-2.46
			c0.15-1.69-0.15-4,2.62-6.31c2.31-1.85,2.62-3.23,4.77-4.62c0.92-0.46,1.54-0.46,1.85-0.46c1.08,0,2.31,0.46,2.46,1.54
			c0.15,1.08,0.77,1.85,0.77,3.08c0,0.46-0.15,0.77-0.15,1.08c-0.92,1.69-1.08,1.69-2.77,3.38c-1.08,1.08-1.69,2.15-1.69,3.38
			c0,0.31,0,0.62,0.77,0.92c0.46,0.15,0.31,0.15,0.62,0.15c2.31,0,4.77-1.38,6.62-2.15c1.69-0.62,3.23-1.69,4.62-1.69
			c1.23,0,3.08,1.23,3.08,2.62c0,0.46-0.15,1.38-0.46,1.85c-0.62,0.77-1.69,1.23-2.46,2.46c-0.77,1.08-2.46,1.38-3.38,2.77
			c-0.92,1.38-2.77,2.46-3.69,3.23c-1.08,0.92-1.85,1.54-2.92,2.92c-1.85,2.46-2.15,1.85-3.69,4.31c-0.77,1.23-1.38,1.85-2.62,3.54
			c-0.62,0.77-1.85,3.08-1.85,4.62c0,1.85,0.31,3.38,2.31,3.38s3.38-0.46,4.77-1.08c2.92-1.38,1.38-0.92,3.69-2
			c2.31-1.08,2.46-1.85,3.85-2.62c1.38-0.77,1.85-1.08,2.77-1.85c1.23-1.08,1.69-1.54,2.92-2.46c1.54-1.08,1.54-1.38,2.62-2.15
			c1.08-0.77,1.23-1.23,2-1.69c0.77-0.46,1.23-1.08,1.69-1.38c0.77-0.46,1.54-1.69,2.77-1.69c0.31,0,0.46,0.31,0.46,0.62
			c0,0.62-0.62,1.08-1.23,1.85C977.92,573.69,976.54,574.77,975.31,575.85z"/>
		<path d="M1044.38,587.1c-1.21,3.15-3,1.77-3,1.77c-7.77-3.89-13.86-12.45-13.86-12.45l-1.12,1.12c-0.46,0-2.15,2.92-4.92,4.62
			c-1.23,0.77-2.15,1.85-2.92,2.77c-0.92,1.08-2,2.15-3.69,2.92c-2.92,1.69-1.69,1.69-4.92,2.77c-0.77,0.31-3.54,1.54-4.62,1.69
			c-4.15,0.77-2.92,0.77-4.92,0.77c-1.69,0-3.08-0.15-4.62-0.15c-1.69,0-4.92-1.23-6.77-2.31c-1.54-0.92-3.08-1.85-3.54-3.23
			c-0.92-2.31-2-3.85-2-7.23c0-1.38,0.46-2.92,0.92-4.46c0.92-2.46,0.31-2.15,1.69-4.31c1.08-1.85,1.23-2.62,2.31-4
			s1.69-1.85,2.62-2.77c1.38-1.23,3.08-2.62,4.46-4.62c1.38-2,3.85-3.38,4.77-4.15c1.85-2.31,1.54-0.92,4-3.69
			c1.08-1.08,2.31-1.23,4.15-3.23c1.69-2.15,2.15-1.38,3.38-2.92c1.23-1.54,3.23-2.46,4.46-3.85c0.46-0.46,0.46-0.92,0.46-1.54
			c0-1.85-0.46-2.77-0.46-3.54c0-0.92-0.62-2.46-0.62-4.46c0-0.92,0-2.15,0.31-3.23c0.62-2.15,0.77-2.77,0.92-4.77
			c0.15-1.54,0.92-2.77,1.38-4.15c0.77-2,0.46-2.15,1.54-4c0.62-1.23,1.38-2.77,2.62-4.77c1.08-1.54,2.46-2.92,3.08-3.85
			c1.54-2.31,1.69-2,2.92-3.23c1.23-1.23,2.15-1.85,3.38-2.46c2-0.92,2.92-1.54,4.15-1.54c1.54,0,3.54,0.46,4.15,1.08
			c0.77,0.77,2.31,0.62,3.23,3.08c0.31,0.77,1.23,1.54,1.23,4c0,1.23-0.15,3.54-0.31,4c-0.46,2.31-0.46,3.69-1.08,5.08
			c-1.38,3.23-3.08,4-4.77,7.08s-3.85,3.85-5.08,6c-1.23,2.31-3.23,2.92-4.46,4.46c-1.38,1.69-3.85,3.38-3.85,4.62
			c0,1.08,0.31,2.77,1.08,4.15c0.46,0.62,0.46,2.46,1.54,4.31c0.46,0.77,1.23,3.69,1.38,4.46c0.62,3.08,1.23,4.77,2,6.31
			c0.62,1.69,0.77,4.92,1.69,4.92c0.31,0,0.46-0.15,0.92-0.62c1.23-1.08,2.31-2.92,4-4.31c1.85-1.38,2.31-2,3.85-3.85
			c1.54-2,2.77-2.62,4.31-4.62c1.69-2,3.23-2.62,4.92-4.92c1.69-2,3.23-2.62,5.23-4.77c1.85-2.31,4-3.23,5.85-5.23
			c2-2,3.38-2.31,4.92-3.85c1.54-1.69,2-1.69,3.54-2.77c1.08-0.92,2.31-1.54,4.15-2.92s2.62-1.69,4.15-2.15
			c0.77-0.15,2-1.08,3.08-1.54c2.15-0.92,3.08-0.77,4.46-1.23c2.31-0.77,2.92-0.62,3.54-0.92c0.62-0.31,2.15-0.46,2.62-0.46
			c0.92,0,2.62,0.15,3.38,0.15c2.15,0,2.92,0.15,4,0.62c1.54,0.77,2.31,0.92,3.54,2.92c1.08,1.69,2.92,3.69,2.92,6.31
			c0,2.15-0.62,4.46-2.46,6c-2.62,2.15-3.38,3.38-6.46,3.38c-1.54,0-2.46-0.46-4.15-1.85c-1.69-1.85-1.85-2.15-2.46-4.15
			c-0.62-2.31-1.23-3.08-1.23-5.08c0-2.46-1.69-2.77-3.38-2.77c-0.62,0-2.31,0.15-2.92,0.46c-1.08,0.62-2.15,0.62-3.08,0.92
			c-1.23,0.31-1.69,1.08-4.15,2c-2,0.77-2.46,1.08-4.31,2.92c-1.69,1.38-3.23,2-4.92,3.39c-1.54,1.23-2.77,1.69-4,3.23
			c-1.38,1.69-4.15,3.23-5.38,4.77c-1.23,1.54-1.85,2.31-3.54,3.85c-1.54,1.38-2,2.62-3.54,3.85c-2,1.69-2.92,4-5.38,6
			c-2.46,2-2.77,3.38-3.69,4.15c-1.85,1.85-2.77,2.46-3.85,4.15c-1.38,2-3.54,2.92-3.54,4.92c0,0.46,0.85,2.25,2.9,6.61
			C1038.67,581.35,1045.26,584.81,1044.38,587.1z M1023.62,564.92c-0.62-1.69-1.08-2-1.38-4.15c-0.31-2-0.77-2.77-1.23-4.15
			c-0.46-1.23-1.08-2.92-1.08-4c0-1.38-0.77-1.69-1.08-3.38c-0.31-1.69-0.46-3.08-1.08-3.08c-1.08,0-2.92,1.69-4.15,3.23
			c-1.23,1.54-3.54,2.46-5.08,4.46c-1.85,2.46-2.15,1.69-3.69,3.69s-2.31,2.15-3.69,4.15c-1.38,2.15-2.92,2.77-4,5.08
			c-1.08,2.31-1.69,4.15-2.46,5.38c-0.46,0.77-1.08,3.23-1.08,5.23c0,1.54,0.15,2.46,0.15,3.08c0,1.69,2.77,4.31,5.08,4.31
			c0.46,0,1.38,0.15,2,0.15c2,0,4.31,0,5.69-0.77c2-1.08,2.92-0.31,5.69-1.85c0.77-0.31,2.46-1.38,4.31-2.46
			c1.38-0.92,2.77-2.31,3.54-2.92c1.54-1.38,2.77-2.31,3.85-3.38c1.08-1.23,1.38-1.69,1.38-2.15c0-0.62-0.77-1.85-0.77-2.77
			C1024.54,566.92,1024.08,566.62,1023.62,564.92z M1039,509.69c0-1.23,0-1.85-0.77-3.38c-0.77-1.69-1.23-2.31-2.92-2.31
			c-0.31,0-1.08,0.31-1.69,0.77c-1.38,0.92-0.77,0.31-2.46,2.15c-2,2.31-2,2-2.46,3.23c-0.77,2-1.54,2.31-2.31,4
			c-0.77,1.85-0.92,2-1.38,3.54c-0.15,0.77-0.92,2.15-1.23,3.54c-0.31,1.69-0.31,3.54-0.31,4.31c0,1.38-0.15,2.62-0.15,3.69
			c0,1.54,0,2,0.15,3.38c0,0.92,0.31,2,0.77,2c1.08,0,2.46-2.15,4.31-3.85c1.69-1.38,1.85-2.77,3.69-4.15
			c1.69-1.38,1.23-2.15,2.92-3.85c1.69-1.54,1.69-3.38,2.31-4.31c1.08-1.85,1.38-3.23,1.38-4.46c0-0.77,0.31-1.38,0.31-2.31
			C1039.16,510.92,1039,510.15,1039,509.69z"/>
		<path d="M1198.09,502.77c-0.92,1.69-1.08,2.15-1.85,3.38c-0.77,1.23-0.77,2-2.62,4c-1.85,2-2.77,2.46-3.69,3.69
			c-1.85,2.31-2.46,2.77-3.38,3.38c-0.46,0.31-2,1.38-3.08,2.31l-3.08,2.31c-1.38,1.23-2.46,1.54-3.23,2.15
			c-1.38,1.08-2.31,1.69-3.69,2.46c-1.38,0.77-2.15,1.54-3.54,2.31c-1.38,0.77-3.23,2-5.85,3.23c-2,1.08-3.85,1.85-4.92,2.31
			c-0.92,0.46-3.08,0.92-4.62,1.69c-2.46,1.08-5.23,1.85-6.62,2.15c-2.31,0.31-3.69,1.08-6.92,1.85c-3.08,0.46-5.54,0.92-7.54,1.08
			l-5.23,0.46c-1.38,0.31-1.85-0.15-2.92,1.08c-1.08,1.23-2.15,2.77-3.08,5.23c-0.92,2.46-2.31,3.08-3.23,6.62
			c-0.62,2.46-1.69,3.54-2.62,6.46c-1.23,3.69-1.85,4-2.31,7.69c-0.31,2-1.23,2.92-1.23,5.69c0,2.77-0.31,3.23-0.31,4.77
			c0,3.38,0,3.23,0.62,5.08c0.62,1.85,0.62,3.23,2.31,4.92s2.46,2.31,4.31,2.77c1.85,0.46,3.69,1.08,5.69,1.08
			c0.92,0,2,0.15,3.54,0.15c0.46,0,2.31,0,2.92-0.15c0.92-0.15,2.77-0.31,4.15-0.62c1.85-0.62,2.31-0.46,4-1.23
			c1.38-0.62,2.62-0.77,3.69-1.38c0,0,1.69-0.92,3.54-1.69c1.85-0.77,2.62-1.38,4.77-2.77c2-1.23,2.46-1.85,4-2.92
			c1.54-1.08,1.85-2,3.38-3.23c1.85-1.38,1.69-2.15,2.92-3.23c0.92-0.77,1.54-1.69,2.31-2.92c0.92-1.23,1.69-2.77,2.92-4
			c1.38-1.38,1.85-3.23,2.31-4.31c0.46-1.23,1.08-2.15,1.54-3.69c0.31-1.08,0.62-2.15,0.77-3.85c0.15-0.92,0.46-2.62,0.46-3.38
			l-0.15-1.54c0-0.92-0.46-2.92-1.08-3.54c-0.92-1.08-1.54-1.08-2.31-1.38c-0.92-0.46-1.69-0.62-3.08-0.62
			c-0.92,0-3.54,0.62-5.08,1.38c-2,1.08-3.38,1.08-5.38,2.77c-1.08,0.92-2.15,1.69-3.23,2.46c-0.92,0.62-1.69,1.23-2.46,2
			c-0.77,1.08-2,1.69-2.92,2.92c-0.92,1.23-1.38,1.38-2.15,2.15c-0.92,0.92-1.69,1.54-2.62,2.77c-0.92,1.23-2,2-2.62,3.08
			c-0.77,0.92-1.54,1.69-2.15,2.62c-0.62,0.77-0.92,1.54-1.54,2.46c-0.62,0.92-1.23,1.38-1.54,1.38s-0.31-0.15-0.31-0.46
			s0-0.92,0.31-1.54c0.92-1.85,0.62-1.54,2-3.54c0.62-0.77,2.31-3.38,2.92-4.31c0.92-1.23,2.15-2.92,3.08-3.85
			c1.54-1.54,2.15-1.85,3.54-3.54c1.23-1.54,2-1.85,3.38-3.23c2.15-2.31,3.23-2.62,5.08-3.85c1.85-1.23,3.38-1.85,5.38-2.92
			c2-1.08,5.54-1.85,6.92-1.85c1.54,0,2.46-0.15,3.69-0.15c1.08,0,3.38,0.46,4,0.77c0.77,0.31,1.23,0.77,2,1.38
			c0.62,0.46,1.08,0.62,1.85,1.38c0.77,0.77,1.54,2.31,1.54,4.15c0,1.54,0.15,1.69,0.15,3.08c0,1.08-0.62,2.92-1.08,5.23
			c-0.62,3.08-1.54,4.15-2.46,5.54c-0.77,1.23-1.23,2.77-2.15,3.69c-0.92,0.92-1.08,2-2.15,3.08c-0.62,0.62-2,2.46-3.23,3.69
			c-1.08,1.08-1.85,1.54-2.92,2.77l-2.15,2c-1.54,1.54-2,1.38-3.38,2.62c-0.62,0.62-1.69,1.23-2.46,1.85
			c-1.38,1.23-2.31,1.38-3.69,2.62c-1.38,1.23-4.15,2-6.31,3.54c-1.38,0.92-3.23,1.54-4.77,2.46c-1.54,0.92-3.38,1.23-5.38,2.31
			s-5.23,1.69-8.46,2.31c-2,0.31-4.62,0.62-6.62,0.62c-1.85,0-2.77-0.15-4.62-0.15c-1.23,0-2.62-0.31-4-0.62
			c-3.38-0.77-4.31-0.77-6.31-2.77c-0.92-1.08-2-2-2.92-2.92c-1.23-1.23-2.15-2.77-2.46-4.77l-0.62-3.85
			c-0.15-1.38-0.62-2.62-0.62-4c0-1.08,0.15-2.46,0.31-3.38c0.62-3.08,0-3.54,1.08-6.15c1.08-2.62,0.77-4.46,2-6.46
			c1.08-1.85,1.23-2.92,1.69-4.92s0.92-2.46,2.15-4.62c1.23-2.15,0.77-2.92,2.31-4.92s1.38-3.08,2.46-4.62
			c1.08-1.54,1.08-1.69,1.08-2.15s-0.46-0.46-0.92-0.62c-0.46-0.15-1.54-0.31-2.15-0.31c-0.92,0-1.85-0.62-2.77-0.62
			c-0.92,0-3.69-1.23-4.77-1.54c-1.38-0.46-3.08-1.23-4.31-2l-1.85-1.23c-1.38-0.92-2.31-1.85-3.23-2.62
			c-1.08-0.77-1.54-1.85-2.92-3.38c-1.23-1.23-1.85-3.23-2.46-4.62c-1.08-2.62-1.69-4.15-1.85-6.92c-0.15-2-0.15-1.23-0.15-3.08
			c0-0.77,0.31-2.31,0.46-3.54c0.15-1.23,0.77-1.85,1.23-3.54c0.31-1.38,1.08-2,1.54-2.92c0.62-1.08,1.69-2,2.31-2.77
			c0.77-0.92,2.62-2.15,3.54-2.62c1.54-0.92,2.31-1.23,4.46-1.85c2.15-0.62,3.38-0.77,4.77-0.77l3.08-0.15c0.62,0,3.38,0,3.38,0.31
			c0,0.92-1.54,0.92-3.38,1.69c-1.54,0.62-3.23,0.77-4.62,1.85c-1.23,1.08-2.62,1.08-4,3.08c-1.23,1.85-2.92,3.08-3.54,4.92
			c-0.46,1.85-1.38,2.77-1.54,4.62c-0.15,1.38-0.31,1.23-0.31,2.77c0,1.38,0,2.62,0.15,3.85c0.15,2,0.31,4.15,0.92,5.08
			c1.08,1.69,0.46,2.62,2,4.31s1.69,2.62,2.92,3.54c1.38,0.92,1.38,1.54,3.54,2.77c2,0.92,1.38,1.08,3.23,1.69s4.15,1.23,6.31,1.38
			h2c0.62,0,1.38,0,2-0.62c1.54-1.54,1.38-1.69,3.08-3.69c2.46-2.31,3.23-4.77,5.38-6.46s2.92-3.54,4.15-4.31
			c1.38-0.92,1.23-1.69,2.92-3.23c2-1.85,2.15-2.77,4.15-4c2-1.23,3.38-3.38,5.08-4.46c1.69-1.08,2.77-2.31,4.31-3.38
			c2.15-1.38,2.31-1.85,3.54-2.62c2.62-1.54,2.46-2.15,4-2.92c1.54-0.77,3.08-2.31,4-2.77c2.15-1.23,2.92-2,5.23-3.08
			s3.08-2.31,5.38-3.23c2.15-0.92,3.69-2.15,5.54-2.77c1.85-0.62,3.85-1.85,6.15-2.31c2.31-0.46,4.62-1.38,7.08-1.38
			c3.08,0,2.92,0.15,4,0.15c0.77,0,3.08,0.31,4.15,1.23c1.08,0.92,2.31,1.08,2.77,3.08c0.46,2,1.08,1.69,1.08,4.15
			c0,0.46,0,1.38-0.15,2C1199.01,499.38,1198.86,501.38,1198.09,502.77z M1189.01,492.31c-0.62-0.77-0.92-0.92-1.85-1.23
			c-0.77-0.31-2-0.31-2.77-0.31c-1.23,0-3.23,0.31-5.23,1.38c-2,1.08-1.38,0.46-3.85,1.85c-0.92,0.62-2.77,1.54-3.85,2.15
			c-1.54,0.92-2.77,2.15-4,2.77c-2.31,1.23-2.15,1.38-4.62,3.23l-4,2.77c-1.85,1.38-3.69,2.62-4.77,3.85
			c-0.92,0.92-2.31,1.23-3.38,2.92c-1.08,1.69-2.15,1.85-3.38,2.92c-0.92,0.77-2.31,1.69-3.69,3.54c-1.38,1.85-2.62,2.46-4,4.46
			c-1.54,2.31-2.46,2.15-4,4.77c-1.23,2.15-3.08,3.54-4.15,5.54c-1.38,2.46-3.08,3.54-3.08,5.23c0,0.62,1.08,0.77,1.54,0.77
			c0.62,0,2.31,0,6-0.46c1.23-0.15,2.77-0.62,4-0.62c2.77-0.31,4.92-1.38,7.08-1.85l4.31-1.54c1.38-0.62,2.62-0.62,4-1.38
			c1.08-0.62,2-0.92,3.69-1.69c1.38-0.62,2.62-1.23,4.15-2.15c1.08-0.92,3.69-2.46,5.08-3.38c1.85-1.23,3.08-2.62,5.08-4
			s1.69-1.85,3.85-3.23c2.15-1.38,2.46-2.46,3.38-3.23c1.23-0.92,1.23-2,2.62-3.23c1.38-1.23,1.69-2.77,2.31-3.69
			c0.92-1.23,1.08-2.46,2.46-4.31c0.92-1.23,0.77-2.62,1.69-4.62c0.46-0.92,0.62-1.69,0.62-2.77c0-0.92-0.15-2-0.15-2
			C1190.09,493.69,1189.47,492.92,1189.01,492.31z"/>
		<path d="M1229.17,575.08c-0.92,0.92-1.54,1.08-2.31,1.85c-0.77,0.77-1.69,0.92-2.77,1.85c-1.08,0.92-1.69,1.08-3.23,1.85
			c-0.92,0.46-3.23,1.23-4.62,1.23c-0.46,0-1.23-0.15-1.69-0.15c-1.38,0-2.31-0.77-3.23-1.69c-0.77-0.77-0.62-1.85-1.08-1.85
			c-0.31,0-0.77,0-1.85,1.54c-1.08,1.54-0.92,1.23-2,2.46c-1.08,1.23-2.15,1.85-3.23,3.23c-1.54,2-2.15,1.85-4,3.38
			c-1.54,1.38-3.08,1.69-5.08,2.62c-2.92,1.38-5.38,1.38-6.77,1.38c-1.69,0-4.62,0-6.15-1.38c-1.23-1.23-2.62-2.15-2.92-4.92
			c-0.31-1.69-0.46-1.85-0.46-3.69c0-1.85,0.62-4.31,1.38-5.54c1.38-2.31,1.85-4,3.38-5.38c1.54-1.38,2.62-3.54,4.62-5.08
			c2-1.54,2.15-1.85,3.38-3.23c1.23-1.38,2.92-1.85,4.15-3.23s2.92-2.62,3.85-3.08c1.69-1.08,1.54-1.23,4-2.62
			c1.69-0.77,2.92-1.85,4.15-2.15c1.38-0.31,2.77-1.23,5.08-1.23c2.46,0,4,0.46,6.15,1.54c1.85,0.92,3.08,3.08,3.08,4.92l0.15,1.85
			c0,1.08,0,2.46-0.77,3.85c-1.23,2-0.62,1.23-1.23,2.46c-1.08,2.15-2.15,3.08-2.46,4.15c-0.31,1.23-0.46,0.92-0.46,1.69
			c0,0.62-0.15,0.62-0.15,1.69c0,2,0.31,3.38,2.62,3.54h0.62c1.08,0,2.31,0,4-0.92c2-1.08,2.62-1.38,3.69-2.15
			c1.54-1.08,1.23-0.77,2.62-1.85s1.69-1.69,2.46-1.69c0,0,0.62,0,0.62,0.62c0,0.46-0.31,1.08-1.08,1.85
			C1231.63,572.77,1229.78,574.46,1229.17,575.08z M1214.24,556.92c0-0.92-1.38-2.31-3.23-2.31c-0.77,0-1.85,0.31-2.15,0.31
			c-0.77,0-1.69,0.62-3.23,1.54c-2,0.92-3.38,2.31-4.77,3.54c-2,1.69-2.77,2.77-4.31,4.77c-1.54,2-3.08,3.38-3.69,4.62
			c-0.77,1.38-2,2.77-2.62,4.31c-0.62,1.54-1.38,2.46-1.85,3.69c-0.46,1.23-1.08,2.62-1.08,5.23c0,0.92,0.31,2.31,1.08,3.08
			c0.77,0.77,1.54,0.92,3.23,0.92c2.46,0,5.54-1.08,8-2.77c1.23-0.92,2.77-1.69,4.31-3.23c1.54-1.54,2-2.15,2.77-3.08
			c1.23-1.69,1.38-2,1.85-2.77c0.46-0.77,0.46-1.38,0.92-4.15c0.31-1.85,0.92-3.54,2-5.69c1.85-3.38,2.92-4.31,2.92-5.85
			C1214.4,558.31,1214.24,557.39,1214.24,556.92z"/>
		<path d="M1245.48,589.23c-1.38,2.31-3.08,3.69-6.92,3.69c-1.69,0-2.77-2.92-2.77-4c0-0.31,0-1.54,0.15-1.85
			c0.92-3.08,4.31-6.15,8.31-6.15c2,0,2.77,2.15,2.77,2.92C1247.02,584.77,1246.4,587.69,1245.48,589.23z"/>
	</g>
</g>
<g id="レイヤー_2" class="st0">
	<path class="st1" d="M690.4,571.17c0,0-19.04,21.99,4.39,23.18s44.49,4.39,82.71-36.34c38.22-40.73,73.31-75.19,73.31-75.19
		l-60.78,107.15c0,0,10.37-8.69,15.66-18.17s13.79-57.02-25.69-51.38c-39.48,5.64-22.95,33.49-16.29,38.85
		c6.66,5.35,26.94,3.13,36.34-2.51s15.66,0,18.8,5.64c3.13,5.64,0,22.56-5.64,25.69c-5.64,3.13-0.85-10.3,13.16-19.42
		s32.58-16.92,32.58-16.92s-6.27,5.01-8.77,13.16c-2.51,8.15,1.67,20.59-8.15,25.69c-9.81,5.1-34.24,2.32-18.8-11.91
		c15.45-14.22,37.96-13.88,60.78-28.82c22.82-14.94,37.3-28,25.06-21.93c-12.24,6.07-41.98,41.36-41.36,57.65
		c0.63,16.29,25.09-6.54,35.72-11.91c10.63-5.36,11.28-10.65,21.3-17.54s4.04-12.16-0.63-8.15c-4.66,4.02-24.91,26.18-22.56,35.72
		s5.85,11.43,18.8,1.25c12.94-10.18,30.7-23.81,30.7-23.81s11.28-15.04,7.52-12.53c-3.76,2.51-14.46,12.27-1.25,11.91
		c13.21-0.36,0,0.63-5.01,9.4c-5.01,8.77-10.25,18.81-5.01,20.68c5.23,1.87,24.44-10.65,30.08-18.8
		c5.64-8.15-107.15-28.82-107.15-28.82s60.78,1.25,78.32-0.63c17.54-1.88,77.7,26.94,90.86,41.98c0,0-13.78-28.01-18.17-43.86
		s4.25-40.75,13.16-38.22c8.91,2.53,10.65,18.17-1.25,28.2s-38.22,28.2-41.36,41.98c-3.13,13.79,8.15,18.56,21.93,11.28
		c13.79-7.28,26.94-27.31,31.96-32.58c5.02-5.27,36.97-30.08,45.74-27.57c8.77,2.51,13.06,6.72,9.4,11.28
		c-3.66,4.56-11.28-34.46,6.27-37.6c0,0-46.33,38.04,10.65,43.86c42.04,4.29,76.44-28.82,77.7-43.86c1.25-15.04-37.6,0-57.65,21.93
		s-42.6,71.49-21.3,73.94s50.13-8.77,57.65-26.94c7.52-18.17-6.27-34.46-39.48,1.88s74.56,4.39,81.46-5.01
		c6.89-9.4-2.29-14.52-8.77-8.77c-6.48,5.75-30.08,21.3-23.18,30.08c6.89,8.77,24.44,0,28.2-10.65s1.25-15.04,1.25-15.04
		s-5.64,35.72,18.8,11.28l8.15,17.54"/>
</g>
</svg>
