<!-- Generator: Adobe Illustrator 25.2.3, SVG Export Plug-In  -->
<svg version="1.1" xmlns="http://www.w3.org/2000/svg" xmlns:xlink="http://www.w3.org/1999/xlink" x="0px" y="0px"
    width="584.45px" height="139.12px" viewBox="0 0 584.45 139.12"
    style="overflow:visible;enable-background:new 0 0 584.45 139.12;" xml:space="preserve">
    <style type="text/css">
        .st0 {
            fill: none;
            stroke: #FF1D25;
            stroke-width: 27;
            stroke-linecap: round;
            stroke-linejoin: round;
            stroke-miterlimit: 10;
        }
    </style>
    <defs>
    </defs>
    <path class="st0" d="M20.8,101.85c0,0-19.04,21.99,4.39,23.18s44.49,4.39,82.71-36.34s73.31-75.19,73.31-75.19l-60.78,107.15
        c0,0,10.37-8.69,15.66-18.17s13.79-57.02-25.69-51.38S87.45,84.59,94.11,89.94c6.66,5.35,26.94,3.13,36.34-2.51
        c9.4-5.64,15.66,0,18.8,5.64c3.13,5.64,0,22.56-5.64,25.69c-5.64,3.13-0.85-10.3,13.16-19.42c14.01-9.12,32.58-16.92,32.58-16.92
        s-6.27,5.01-8.77,13.16s1.67,20.59-8.15,25.69c-9.81,5.1-34.24,2.32-18.8-11.91s37.96-13.88,60.78-28.82s37.3-28,25.06-21.93
        c-12.24,6.07-41.98,41.36-41.36,57.65c0.63,16.29,25.09-6.54,35.72-11.91s11.28-10.65,21.3-17.54c10.03-6.89,4.04-12.16-0.63-8.15
        c-4.66,4.02-24.91,26.18-22.56,35.72c2.36,9.53,5.85,11.43,18.8,1.25c12.94-10.18,30.7-23.81,30.7-23.81s11.28-15.04,7.52-12.53
        c-3.76,2.51-14.46,12.27-1.25,11.91c13.21-0.36,0,0.63-5.01,9.4s-10.25,18.81-5.01,20.68c5.23,1.87,24.44-10.65,30.08-18.8
        S200.63,73.65,200.63,73.65s60.78,1.25,78.32-0.63c17.54-1.88,77.7,26.94,90.86,41.98c0,0-13.78-28.01-18.17-43.86
        s4.25-40.75,13.16-38.22s10.65,18.17-1.25,28.2c-11.91,10.03-38.22,28.2-41.36,41.98s8.15,18.56,21.93,11.28
        c13.79-7.28,26.94-27.31,31.96-32.58c5.02-5.27,36.97-30.08,45.74-27.57c8.77,2.51,13.06,6.72,9.4,11.28
        c-3.66,4.56-11.28-34.46,6.27-37.6c0,0-46.33,38.04,10.65,43.86c42.04,4.29,76.44-28.82,77.7-43.86c1.25-15.04-37.6,0-57.65,21.93
        c-20.05,21.93-42.6,71.49-21.3,73.94c21.29,2.44,50.13-8.77,57.65-26.94c7.52-18.17-6.27-34.46-39.48,1.88s74.56,4.39,81.46-5.01
        c6.89-9.4-2.29-14.52-8.77-8.77s-30.08,21.3-23.18,30.08c6.89,8.77,24.44,0,28.2-10.65s1.25-15.04,1.25-15.04
        s-5.64,35.72,18.8,11.28l8.15,17.54" />
</svg>