<?xml version="1.0" standalone="no"?>
<!DOCTYPE svg PUBLIC "-//W3C//DTD SVG 20010904//EN" "http://www.w3.org/TR/2001/REC-SVG-20010904/DTD/svg10.dtd">
<svg version="1.0" id="svg-logo_00000083076086847581348580000009583606970987892099_" xmlns="http://www.w3.org/2000/svg"
        width="626.000000pt" height="186.000000pt" viewBox="0 0 626.000000 186.000000"
        preserveAspectRatio="xMidYMid meet" xml:space="preserve">

        <g transform="translate(0.000000,186.000000) scale(0.100000,-0.100000)" fill="#000000" stroke="none">
                <path d="M0 1144 l0 -717 52 7 c29 4 54 9 57 11 2 2 70 206 150 452 l147 448
30 3 29 3 150 -446 c83 -246 153 -451 156 -456 3 -6 34 -13 68 -16 51 -5 61
-9 61 -24 0 -18 -11 -19 -185 -19 -174 0 -185 1 -185 19 0 15 11 19 72 25 39
3 73 8 75 9 1 2 -18 65 -43 140 l-46 137 -171 -2 -170 -3 -43 -135 c-24 -74
-42 -136 -40 -137 1 -2 30 -6 64 -9 51 -6 62 -10 62 -25 0 -18 -10 -19 -145
-19 l-145 0 0 -190 0 -190 3130 0 3130 0 0 925 0 925 -3130 0 -3130 0 0 -716z
m3692 206 c83 -24 137 -107 124 -195 -10 -60 -55 -119 -140 -177 l-68 -47 135
-148 c193 -212 168 -201 216 -101 35 73 50 119 75 230 6 26 5 27 -54 34 -50 5
-60 10 -60 25 0 18 10 19 135 19 124 0 135 -2 135 -18 0 -14 -12 -20 -51 -28
l-52 -9 -17 -70 c-24 -93 -54 -168 -97 -238 l-36 -59 69 -69 c50 -51 75 -69
95 -69 46 0 89 -12 89 -25 0 -27 -119 -35 -173 -11 -18 8 -54 37 -81 65 l-50
50 -44 -40 c-24 -23 -69 -53 -100 -67 -79 -37 -212 -38 -287 -4 -94 43 -143
112 -152 212 -10 110 49 213 165 287 l53 34 -35 41 c-77 90 -101 204 -59 284
43 84 157 124 265 94z m1269 -19 c93 -35 92 -34 93 -147 l1 -99 -25 0 c-24 0
-26 4 -39 92 l-14 91 -41 19 c-31 14 -65 18 -146 18 -101 0 -108 -1 -168 -34
-137 -75 -205 -212 -204 -416 1 -239 113 -397 309 -435 67 -13 159 -3 226 25
33 14 34 15 47 104 13 90 13 91 41 91 l29 0 0 -99 0 -98 -59 -27 c-81 -36
-161 -49 -256 -43 -270 19 -436 208 -435 496 1 231 134 418 340 474 85 23 222
17 301 -12z m-3221 -171 l0 -100 95 0 c95 0 95 0 95 -25 0 -25 0 -25 -95 -25
l-95 0 0 -260 c0 -314 4 -330 91 -330 16 0 45 6 64 14 45 19 58 1 22 -30 -54
-46 -165 -43 -220 6 l-32 28 -3 286 -3 286 -69 0 c-62 0 -70 2 -70 19 0 16 10
20 69 26 78 8 72 -2 87 130 8 73 9 75 40 75 24 0 24 -1 24 -100z m-382 -120
l52 -22 0 -69 c0 -67 -1 -69 -25 -69 -22 0 -25 5 -31 51 -4 28 -13 57 -21 64
-37 38 -168 43 -220 10 -57 -38 -67 -129 -19 -174 13 -13 72 -42 131 -66 128
-53 167 -78 194 -126 46 -82 13 -181 -79 -233 -50 -28 -63 -31 -145 -31 -60 0
-111 6 -151 19 l-61 18 -7 71 c-7 74 -1 91 30 85 15 -2 21 -18 29 -68 10 -64
10 -64 50 -76 100 -30 223 -6 261 50 21 34 22 98 0 130 -20 31 -49 47 -160 87
-142 51 -196 106 -196 199 0 73 53 140 131 166 62 20 171 13 237 -16z m1081
14 c101 -30 171 -132 171 -250 0 -79 16 -74 -252 -74 l-240 0 6 -47 c18 -127
77 -215 162 -241 94 -28 205 -8 276 48 26 21 39 26 44 18 5 -7 -13 -30 -45
-60 -67 -61 -135 -83 -234 -75 -175 15 -274 125 -285 316 -10 180 67 313 211
362 65 23 118 24 186 3z m479 -72 c3 -80 14 -104 27 -61 11 35 87 111 130 130
77 36 165 15 165 -39 0 -16 -5 -33 -12 -40 -20 -20 -69 -14 -105 14 l-33 25
-34 -20 c-38 -24 -73 -67 -105 -128 -19 -39 -21 -58 -21 -231 0 -214 -5 -202
83 -202 30 0 37 -4 37 -20 0 -19 -7 -20 -160 -20 -153 0 -160 1 -160 20 0 16
7 20 33 20 77 0 74 -6 82 176 4 90 4 211 0 269 l-7 105 -43 0 c-93 0 -102 31
-17 55 31 9 68 20 82 25 50 17 55 11 58 -78z m2738 57 c27 -13 68 -43 91 -66
102 -106 121 -319 39 -455 -127 -212 -445 -189 -548 40 -18 39 -22 67 -22 157
-1 100 1 115 27 170 43 91 99 141 190 171 60 20 164 12 223 -17z m458 -550
c48 -38 20 -119 -41 -119 -30 0 -73 42 -73 70 0 26 43 70 68 70 11 0 31 -9 46
-21z" />
                <path d="M3560 1313 c-23 -9 -60 -45 -76 -75 -31 -60 -12 -135 57 -225 48 -61
50 -61 132 16 58 53 77 92 77 156 0 57 -21 100 -60 120 -28 15 -100 19 -130 8z" />
                <path d="M3476 850 c-68 -65 -96 -121 -96 -197 0 -100 60 -185 149 -212 96
-28 222 -2 296 62 l38 33 -157 180 c-87 98 -161 180 -166 182 -5 2 -34 -20
-64 -48z" />
                <path d="M2285 1019 c-71 -21 -136 -105 -154 -203 l-8 -46 191 0 c136 0 196 4
204 12 30 30 2 159 -44 200 -48 42 -123 57 -189 37z" />
                <path d="M5457 1020 c-49 -15 -95 -58 -124 -117 -26 -54 -28 -66 -28 -183 0
-110 3 -131 24 -178 27 -60 73 -105 127 -122 49 -16 135 -7 178 19 139 87 157
412 29 533 -54 51 -133 70 -206 48z" />
                <path d="M342 1007 c-40 -128 -73 -235 -72 -239 0 -5 68 -8 150 -8 115 0 150
3 150 13 0 12 -146 457 -152 463 -2 1 -36 -102 -76 -229z" />
        </g>
</svg>